# xmcd
#
# Track frame offsets:
#	150
#	16723
#	35275
#	49482
#	74874
#	100035
#	129433
#	154373
#	182332
#	207712
#	228281
#	253265
#	274602
#	293951
#	339516
#
# Disc length: 4580 seconds
#
# Revision: 1
# Processed by: cddbd v1.5.2PL0 Copyright (c) Steve Scherf et al.
# Submitted via: audiograbber 1.83.01
#
DISCID=df11e20f
DTITLE=The Isley Brothers - The Very Best Of
DYEAR=2010
DGENRE=Soul
TTITLE0=Love The One You're With
TTITLE1=Listen To The Music
TTITLE2=Need A Little Taste Of Love
TTITLE3=For The Love Of You (Pt 1 and 2)
TTITLE4=That Lady (Pt 1 and 2)
TTITLE5=Spill The Wine
TTITLE6=Who Loves You Better (Pt 1 and 2)
TTITLE7=Summer Breeze (Pt 1 and 2)
TTITLE8=Between The Sheets
TTITLE9=Voyage To Atlantis
TTITLE10=Hello It's Me
TTITLE11=Let's Fall In Love (Pt 1 and 2)
TTITLE12=Winner Takes All
TTITLE13=Here We Go Again (Pt 1 and 2)
TTITLE14=Daten-CD
EXTD=
EXTT0=
EXTT1=
EXTT2=
EXTT3=
EXTT4=
EXTT5=
EXTT6=
EXTT7=
EXTT8=
EXTT9=
EXTT10=
EXTT11=
EXTT12=
EXTT13=
EXTT14=
PLAYORDER=
